<?xml version="1.0" encoding="utf-8" standalone="no"?>
<!DOCTYPE svg PUBLIC "-//W3C//DTD SVG 1.1//EN"
  "http://www.w3.org/Graphics/SVG/1.1/DTD/svg11.dtd">
<!-- Created with matplotlib (http://matplotlib.org/) -->
<svg height="196pt" version="1.1" viewBox="0 0 235 196" width="235pt" xmlns="http://www.w3.org/2000/svg" xmlns:xlink="http://www.w3.org/1999/xlink">
 <defs>
  <style type="text/css">
*{stroke-linecap:square;stroke-linejoin:round;}
  </style>
 </defs>
 <g id="figure_1">
  <g id="patch_1">
   <path d="
M0 196.382
L235.176 196.382
L235.176 0
L0 0
z
" style="fill:#ffffff;"/>
  </g>
  <g id="axes_1"/>
  <g id="axes_2">
   <g id="patch_2">
    <path d="
M138.48 66.782
L220.912 66.782
L220.912 10.982
L138.48 10.982
z
" style="fill:#ffffff;"/>
   </g>
   <g id="line2d_1">
    <path clip-path="url(#pad19bb1419)" d="
M148.372 66.779
L154.572 66.6679
L157.027 66.3699
L158.196 66.0796
L160.016 65.3107
L161.867 63.9816
L164.017 61.6123
L167.64 56.4292
L168.23 55.6384
L168.925 54.7827
L171.286 52.7734
L172.215 52.4261
L174.215 52.5363
L175.451 53.1253
L177.41 54.6779
L182.41 60.0357
L183.081 60.7039
L183.883 61.4526
L184.678 62.1321
L185.532 62.7933
L186.559 63.4937
L187.404 63.9984
L191.56 65.6711
L195.455 66.3685
L197.867 66.569
L204.004 66.7539
L216.911 66.7804
L218.713 66.7809
L218.713 66.7809" style="fill:none;stroke:#0000ff;"/>
   </g>
   <g id="line2d_2">
    <path clip-path="url(#pad19bb1419)" d="
M148.298 66.667
L149.363 66.5559
L150.143 66.2823
L150.744 65.8906
L151.275 65.3562
L151.826 64.5581
L151.936 64.3616
L152.451 63.283
L152.933 61.9984
L153.043 61.6606
L153.585 59.8049
L153.695 59.3782
L154.268 56.9653
L154.937 53.7459
L155.743 49.544
L155.853 48.9553
L157.952 39.8809
L158.677 38.4984
L159.185 38.2501
L159.943 38.9671
L160.299 39.7107
L160.802 41.1336
L160.912 41.5004
L161.473 43.5623
L161.583 44.0101
L162.471 47.8296
L162.581 48.3262
L163.288 51.451
L163.398 51.9337
L165.594 59.8598
L166.855 62.7275
L167.965 64.3713
L169.119 65.4394
L170.309 66.0778
L171.731 66.4688
L173.735 66.692
L175.556 66.7443
L175.556 66.7443" style="fill:none;stroke:#008000;"/>
   </g>
   <g id="line2d_3">
    <path clip-path="url(#pad19bb1419)" d="
M146.357 66.2995
L146.689 66.1886
L147.036 65.8106
L147.407 65.0151
L147.809 63.514
L147.919 62.9514
L148.029 62.3258
L148.139 61.6106
L148.249 60.8252
L148.359 59.9384
L148.47 58.959
L148.58 57.8842
L148.69 56.7322
L148.8 55.4624
L148.91 54.1181
L149.02 52.6535
L149.128 51.1497
L149.238 49.5036
L149.344 47.8477
L149.454 46.0426
L149.564 44.1998
L149.674 42.2677
L149.793 40.1682
L149.903 38.1511
L150.015 36.1157
L150.125 34.0735
L150.236 32.0437
L150.346 30.0405
L150.467 27.9201
L150.577 26.0285
L150.696 24.0978
L150.806 22.3876
L150.934 20.5699
L151.044 19.1177
L151.209 17.2261
L151.319 16.1435
L151.473 14.9229
L151.583 14.2477
L151.726 13.6465
L151.836 13.3856
L152.026 13.3619
L152.033 13.3745
L152.136 13.5907
L152.246 13.9938
L152.347 14.5002
L152.457 15.2173
L152.566 16.071
L152.676 17.081
L152.768 18.01
L152.878 19.2516
L152.991 20.6257
L153.101 22.0751
L153.213 23.6082
L153.323 25.2124
L153.438 26.9311
L153.548 28.6385
L153.655 30.2874
L153.764 32.0423
L153.891 34.0302
L154.001 35.7893
L154.129 37.7981
L154.239 39.5126
L154.352 41.2201
L154.462 42.8578
L154.592 44.6978
L154.702 46.2239
L154.823 47.8114
L154.933 49.2092
L155.085 51.0102
L155.195 52.2503
L155.31 53.4602
L155.42 54.5609
L155.552 55.7705
L155.662 56.7251
L155.792 57.7596
L155.902 58.5769
L156.032 59.451
L156.142 60.1428
L156.276 60.9042
L156.386 61.4813
L156.532 62.1681
L156.642 62.6401
L156.785 63.185
L156.895 63.5682
L157.049 64.0411
L157.159 64.3459
L157.32 64.7347
L157.43 64.9729
L157.637 65.3548
L157.747 65.5299
L158.007 65.8694
L158.117 65.9884
L158.606 66.3663
L158.716 66.4254
L160.463 66.7503
L161.744 66.7687
L161.744 66.7687" style="fill:none;stroke:#ff0000;"/>
   </g>
   <g id="matplotlib.axis_1">
    <g id="xtick_1">
     <g id="line2d_4">
      <defs>
       <path d="
M0 0
L0 -4" id="mcb557df647" style="stroke:#000000;stroke-linecap:butt;stroke-width:0.5;"/>
      </defs>
      <g>
       <use style="stroke:#000000;stroke-linecap:butt;stroke-width:0.5;" x="147.638835227" xlink:href="#mcb557df647" y="66.78203125"/>
      </g>
     </g>
     <g id="line2d_5">
      <defs>
       <path d="
M0 0
L0 4" id="mdad270ee8e" style="stroke:#000000;stroke-linecap:butt;stroke-width:0.5;"/>
      </defs>
      <g>
       <use style="stroke:#000000;stroke-linecap:butt;stroke-width:0.5;" x="147.638835227" xlink:href="#mdad270ee8e" y="10.98203125"/>
      </g>
     </g>
     <g id="text_1">
      <!-- 1 -->
      <defs>
       <path d="
M12.4062 8.29688
L28.5156 8.29688
L28.5156 63.9219
L10.9844 60.4062
L10.9844 69.3906
L28.4219 72.9062
L38.2812 72.9062
L38.2812 8.29688
L54.3906 8.29688
L54.3906 0
L12.4062 0
z
" id="BitstreamVeraSans-Roman-31"/>
      </defs>
      <g transform="translate(145.902585227 76.61453125)scale(0.08 -0.08)">
       <use xlink:href="#BitstreamVeraSans-Roman-31"/>
      </g>
     </g>
    </g>
    <g id="xtick_2">
     <g id="line2d_6">
      <g>
       <use style="stroke:#000000;stroke-linecap:butt;stroke-width:0.5;" x="165.957017045" xlink:href="#mcb557df647" y="66.78203125"/>
      </g>
     </g>
     <g id="line2d_7">
      <g>
       <use style="stroke:#000000;stroke-linecap:butt;stroke-width:0.5;" x="165.957017045" xlink:href="#mdad270ee8e" y="10.98203125"/>
      </g>
     </g>
     <g id="text_2">
      <!-- 2 -->
      <defs>
       <path d="
M19.1875 8.29688
L53.6094 8.29688
L53.6094 0
L7.32812 0
L7.32812 8.29688
Q12.9375 14.1094 22.625 23.8906
Q32.3281 33.6875 34.8125 36.5312
Q39.5469 41.8438 41.4219 45.5312
Q43.3125 49.2188 43.3125 52.7812
Q43.3125 58.5938 39.2344 62.25
Q35.1562 65.9219 28.6094 65.9219
Q23.9688 65.9219 18.8125 64.3125
Q13.6719 62.7031 7.8125 59.4219
L7.8125 69.3906
Q13.7656 71.7812 18.9375 73
Q24.125 74.2188 28.4219 74.2188
Q39.75 74.2188 46.4844 68.5469
Q53.2188 62.8906 53.2188 53.4219
Q53.2188 48.9219 51.5312 44.8906
Q49.8594 40.875 45.4062 35.4062
Q44.1875 33.9844 37.6406 27.2188
Q31.1094 20.4531 19.1875 8.29688" id="BitstreamVeraSans-Roman-32"/>
      </defs>
      <g transform="translate(164.105767045 76.71953125)scale(0.08 -0.08)">
       <use xlink:href="#BitstreamVeraSans-Roman-32"/>
      </g>
     </g>
    </g>
    <g id="xtick_3">
     <g id="line2d_8">
      <g>
       <use style="stroke:#000000;stroke-linecap:butt;stroke-width:0.5;" x="184.275198864" xlink:href="#mcb557df647" y="66.78203125"/>
      </g>
     </g>
     <g id="line2d_9">
      <g>
       <use style="stroke:#000000;stroke-linecap:butt;stroke-width:0.5;" x="184.275198864" xlink:href="#mdad270ee8e" y="10.98203125"/>
      </g>
     </g>
     <g id="text_3">
      <!-- 3 -->
      <defs>
       <path d="
M40.5781 39.3125
Q47.6562 37.7969 51.625 33
Q55.6094 28.2188 55.6094 21.1875
Q55.6094 10.4062 48.1875 4.48438
Q40.7656 -1.42188 27.0938 -1.42188
Q22.5156 -1.42188 17.6562 -0.515625
Q12.7969 0.390625 7.625 2.20312
L7.625 11.7188
Q11.7188 9.32812 16.5938 8.10938
Q21.4844 6.89062 26.8125 6.89062
Q36.0781 6.89062 40.9375 10.5469
Q45.7969 14.2031 45.7969 21.1875
Q45.7969 27.6406 41.2812 31.2656
Q36.7656 34.9062 28.7188 34.9062
L20.2188 34.9062
L20.2188 43.0156
L29.1094 43.0156
Q36.375 43.0156 40.2344 45.9219
Q44.0938 48.8281 44.0938 54.2969
Q44.0938 59.9062 40.1094 62.9062
Q36.1406 65.9219 28.7188 65.9219
Q24.6562 65.9219 20.0156 65.0312
Q15.375 64.1562 9.8125 62.3125
L9.8125 71.0938
Q15.4375 72.6562 20.3438 73.4375
Q25.25 74.2188 29.5938 74.2188
Q40.8281 74.2188 47.3594 69.1094
Q53.9062 64.0156 53.9062 55.3281
Q53.9062 49.2656 50.4375 45.0938
Q46.9688 40.9219 40.5781 39.3125" id="BitstreamVeraSans-Roman-33"/>
      </defs>
      <g transform="translate(182.355823864 76.71953125)scale(0.08 -0.08)">
       <use xlink:href="#BitstreamVeraSans-Roman-33"/>
      </g>
     </g>
    </g>
    <g id="xtick_4">
     <g id="line2d_10">
      <g>
       <use style="stroke:#000000;stroke-linecap:butt;stroke-width:0.5;" x="202.593380682" xlink:href="#mcb557df647" y="66.78203125"/>
      </g>
     </g>
     <g id="line2d_11">
      <g>
       <use style="stroke:#000000;stroke-linecap:butt;stroke-width:0.5;" x="202.593380682" xlink:href="#mdad270ee8e" y="10.98203125"/>
      </g>
     </g>
     <g id="text_4">
      <!-- 4 -->
      <defs>
       <path d="
M37.7969 64.3125
L12.8906 25.3906
L37.7969 25.3906
z

M35.2031 72.9062
L47.6094 72.9062
L47.6094 25.3906
L58.0156 25.3906
L58.0156 17.1875
L47.6094 17.1875
L47.6094 0
L37.7969 0
L37.7969 17.1875
L4.89062 17.1875
L4.89062 26.7031
z
" id="BitstreamVeraSans-Roman-34"/>
      </defs>
      <g transform="translate(200.468380682 76.61453125)scale(0.08 -0.08)">
       <use xlink:href="#BitstreamVeraSans-Roman-34"/>
      </g>
     </g>
    </g>
    <g id="text_5">
     <!-- T / L -->
     <defs>
      <path d="
M9.8125 72.9062
L19.6719 72.9062
L19.6719 8.29688
L55.1719 8.29688
L55.1719 0
L9.8125 0
z
" id="BitstreamVeraSans-Roman-4c"/>
      <path id="BitstreamVeraSans-Roman-20"/>
      <path d="
M-0.296875 72.9062
L61.375 72.9062
L61.375 64.5938
L35.5 64.5938
L35.5 0
L25.5938 0
L25.5938 64.5938
L-0.296875 64.5938
z
" id="BitstreamVeraSans-Roman-54"/>
      <path d="
M25.3906 72.9062
L33.6875 72.9062
L8.29688 -9.28125
L0 -9.28125
z
" id="BitstreamVeraSans-Roman-2f"/>
     </defs>
     <g transform="translate(169.005809659 89.12390625)scale(0.1 -0.1)">
      <use xlink:href="#BitstreamVeraSans-Roman-54"/>
      <use x="61.083984375" xlink:href="#BitstreamVeraSans-Roman-20"/>
      <use x="92.87109375" xlink:href="#BitstreamVeraSans-Roman-2f"/>
      <use x="126.5625" xlink:href="#BitstreamVeraSans-Roman-20"/>
      <use x="158.349609375" xlink:href="#BitstreamVeraSans-Roman-4c"/>
     </g>
    </g>
   </g>
   <g id="matplotlib.axis_2">
    <g id="ytick_1">
     <g id="line2d_12">
      <defs>
       <path d="
M0 0
L4 0" id="mc8fcea1516" style="stroke:#000000;stroke-linecap:butt;stroke-width:0.5;"/>
      </defs>
      <g>
       <use style="stroke:#000000;stroke-linecap:butt;stroke-width:0.5;" x="138.479744318" xlink:href="#mc8fcea1516" y="66.78203125"/>
      </g>
     </g>
     <g id="line2d_13">
      <defs>
       <path d="
M0 0
L-4 0" id="m0d5b0a6425" style="stroke:#000000;stroke-linecap:butt;stroke-width:0.5;"/>
      </defs>
      <g>
       <use style="stroke:#000000;stroke-linecap:butt;stroke-width:0.5;" x="220.9115625" xlink:href="#m0d5b0a6425" y="66.78203125"/>
      </g>
     </g>
    </g>
    <g id="ytick_2">
     <g id="line2d_14">
      <g>
       <use style="stroke:#000000;stroke-linecap:butt;stroke-width:0.5;" x="138.479744318" xlink:href="#mc8fcea1516" y="59.80703125"/>
      </g>
     </g>
     <g id="line2d_15">
      <g>
       <use style="stroke:#000000;stroke-linecap:butt;stroke-width:0.5;" x="220.9115625" xlink:href="#m0d5b0a6425" y="59.80703125"/>
      </g>
     </g>
    </g>
    <g id="ytick_3">
     <g id="line2d_16">
      <g>
       <use style="stroke:#000000;stroke-linecap:butt;stroke-width:0.5;" x="138.479744318" xlink:href="#mc8fcea1516" y="52.83203125"/>
      </g>
     </g>
     <g id="line2d_17">
      <g>
       <use style="stroke:#000000;stroke-linecap:butt;stroke-width:0.5;" x="220.9115625" xlink:href="#m0d5b0a6425" y="52.83203125"/>
      </g>
     </g>
    </g>
    <g id="ytick_4">
     <g id="line2d_18">
      <g>
       <use style="stroke:#000000;stroke-linecap:butt;stroke-width:0.5;" x="138.479744318" xlink:href="#mc8fcea1516" y="45.85703125"/>
      </g>
     </g>
     <g id="line2d_19">
      <g>
       <use style="stroke:#000000;stroke-linecap:butt;stroke-width:0.5;" x="220.9115625" xlink:href="#m0d5b0a6425" y="45.85703125"/>
      </g>
     </g>
    </g>
    <g id="ytick_5">
     <g id="line2d_20">
      <g>
       <use style="stroke:#000000;stroke-linecap:butt;stroke-width:0.5;" x="138.479744318" xlink:href="#mc8fcea1516" y="38.88203125"/>
      </g>
     </g>
     <g id="line2d_21">
      <g>
       <use style="stroke:#000000;stroke-linecap:butt;stroke-width:0.5;" x="220.9115625" xlink:href="#m0d5b0a6425" y="38.88203125"/>
      </g>
     </g>
    </g>
    <g id="ytick_6">
     <g id="line2d_22">
      <g>
       <use style="stroke:#000000;stroke-linecap:butt;stroke-width:0.5;" x="138.479744318" xlink:href="#mc8fcea1516" y="31.90703125"/>
      </g>
     </g>
     <g id="line2d_23">
      <g>
       <use style="stroke:#000000;stroke-linecap:butt;stroke-width:0.5;" x="220.9115625" xlink:href="#m0d5b0a6425" y="31.90703125"/>
      </g>
     </g>
    </g>
    <g id="ytick_7">
     <g id="line2d_24">
      <g>
       <use style="stroke:#000000;stroke-linecap:butt;stroke-width:0.5;" x="138.479744318" xlink:href="#mc8fcea1516" y="24.93203125"/>
      </g>
     </g>
     <g id="line2d_25">
      <g>
       <use style="stroke:#000000;stroke-linecap:butt;stroke-width:0.5;" x="220.9115625" xlink:href="#m0d5b0a6425" y="24.93203125"/>
      </g>
     </g>
    </g>
    <g id="ytick_8">
     <g id="line2d_26">
      <g>
       <use style="stroke:#000000;stroke-linecap:butt;stroke-width:0.5;" x="138.479744318" xlink:href="#mc8fcea1516" y="17.95703125"/>
      </g>
     </g>
     <g id="line2d_27">
      <g>
       <use style="stroke:#000000;stroke-linecap:butt;stroke-width:0.5;" x="220.9115625" xlink:href="#m0d5b0a6425" y="17.95703125"/>
      </g>
     </g>
    </g>
    <g id="ytick_9">
     <g id="line2d_28">
      <g>
       <use style="stroke:#000000;stroke-linecap:butt;stroke-width:0.5;" x="138.479744318" xlink:href="#mc8fcea1516" y="10.98203125"/>
      </g>
     </g>
     <g id="line2d_29">
      <g>
       <use style="stroke:#000000;stroke-linecap:butt;stroke-width:0.5;" x="220.9115625" xlink:href="#m0d5b0a6425" y="10.98203125"/>
      </g>
     </g>
    </g>
   </g>
   <g id="patch_3">
    <path d="
M138.48 10.982
L220.912 10.982" style="fill:none;stroke:#000000;"/>
   </g>
   <g id="patch_4">
    <path d="
M220.912 66.782
L220.912 10.982" style="fill:none;stroke:#000000;"/>
   </g>
   <g id="patch_5">
    <path d="
M138.48 66.782
L220.912 66.782" style="fill:none;stroke:#000000;"/>
   </g>
   <g id="patch_6">
    <path d="
M138.48 66.782
L138.48 10.982" style="fill:none;stroke:#000000;"/>
   </g>
   <g id="legend_1">
    <g id="line2d_30">
     <path d="
M172.316 20.1509
L182.116 20.1509" style="fill:none;stroke:#0000ff;"/>
    </g>
    <g id="line2d_31"/>
    <g id="text_6">
     <!-- p=0.70 -->
     <defs>
      <path d="
M31.7812 66.4062
Q24.1719 66.4062 20.3281 58.9062
Q16.5 51.4219 16.5 36.375
Q16.5 21.3906 20.3281 13.8906
Q24.1719 6.39062 31.7812 6.39062
Q39.4531 6.39062 43.2812 13.8906
Q47.125 21.3906 47.125 36.375
Q47.125 51.4219 43.2812 58.9062
Q39.4531 66.4062 31.7812 66.4062
M31.7812 74.2188
Q44.0469 74.2188 50.5156 64.5156
Q56.9844 54.8281 56.9844 36.375
Q56.9844 17.9688 50.5156 8.26562
Q44.0469 -1.42188 31.7812 -1.42188
Q19.5312 -1.42188 13.0625 8.26562
Q6.59375 17.9688 6.59375 36.375
Q6.59375 54.8281 13.0625 64.5156
Q19.5312 74.2188 31.7812 74.2188" id="BitstreamVeraSans-Roman-30"/>
      <path d="
M10.6875 12.4062
L21 12.4062
L21 0
L10.6875 0
z
" id="BitstreamVeraSans-Roman-2e"/>
      <path d="
M10.5938 45.4062
L73.1875 45.4062
L73.1875 37.2031
L10.5938 37.2031
z

M10.5938 25.4844
L73.1875 25.4844
L73.1875 17.1875
L10.5938 17.1875
z
" id="BitstreamVeraSans-Roman-3d"/>
      <path d="
M18.1094 8.20312
L18.1094 -20.7969
L9.07812 -20.7969
L9.07812 54.6875
L18.1094 54.6875
L18.1094 46.3906
Q20.9531 51.2656 25.2656 53.625
Q29.5938 56 35.5938 56
Q45.5625 56 51.7812 48.0938
Q58.0156 40.1875 58.0156 27.2969
Q58.0156 14.4062 51.7812 6.48438
Q45.5625 -1.42188 35.5938 -1.42188
Q29.5938 -1.42188 25.2656 0.953125
Q20.9531 3.32812 18.1094 8.20312
M48.6875 27.2969
Q48.6875 37.2031 44.6094 42.8438
Q40.5312 48.4844 33.4062 48.4844
Q26.2656 48.4844 22.1875 42.8438
Q18.1094 37.2031 18.1094 27.2969
Q18.1094 17.3906 22.1875 11.75
Q26.2656 6.10938 33.4062 6.10938
Q40.5312 6.10938 44.6094 11.75
Q48.6875 17.3906 48.6875 27.2969" id="BitstreamVeraSans-Roman-70"/>
      <path d="
M8.20312 72.9062
L55.0781 72.9062
L55.0781 68.7031
L28.6094 0
L18.3125 0
L43.2188 64.5938
L8.20312 64.5938
z
" id="BitstreamVeraSans-Roman-37"/>
     </defs>
     <g transform="translate(189.81625 22.6009375)scale(0.07 -0.07)">
      <use xlink:href="#BitstreamVeraSans-Roman-70"/>
      <use x="63.4765625" xlink:href="#BitstreamVeraSans-Roman-3d"/>
      <use x="147.265625" xlink:href="#BitstreamVeraSans-Roman-30"/>
      <use x="210.888671875" xlink:href="#BitstreamVeraSans-Roman-2e"/>
      <use x="242.67578125" xlink:href="#BitstreamVeraSans-Roman-37"/>
      <use x="306.298828125" xlink:href="#BitstreamVeraSans-Roman-30"/>
     </g>
    </g>
    <g id="line2d_32">
     <path d="
M172.316 26.9256
L182.116 26.9256" style="fill:none;stroke:#008000;"/>
    </g>
    <g id="line2d_33"/>
    <g id="text_7">
     <!-- p=0.80 -->
     <defs>
      <path d="
M31.7812 34.625
Q24.75 34.625 20.7188 30.8594
Q16.7031 27.0938 16.7031 20.5156
Q16.7031 13.9219 20.7188 10.1562
Q24.75 6.39062 31.7812 6.39062
Q38.8125 6.39062 42.8594 10.1719
Q46.9219 13.9688 46.9219 20.5156
Q46.9219 27.0938 42.8906 30.8594
Q38.875 34.625 31.7812 34.625
M21.9219 38.8125
Q15.5781 40.375 12.0312 44.7188
Q8.5 49.0781 8.5 55.3281
Q8.5 64.0625 14.7188 69.1406
Q20.9531 74.2188 31.7812 74.2188
Q42.6719 74.2188 48.875 69.1406
Q55.0781 64.0625 55.0781 55.3281
Q55.0781 49.0781 51.5312 44.7188
Q48 40.375 41.7031 38.8125
Q48.8281 37.1562 52.7969 32.3125
Q56.7812 27.4844 56.7812 20.5156
Q56.7812 9.90625 50.3125 4.23438
Q43.8438 -1.42188 31.7812 -1.42188
Q19.7344 -1.42188 13.25 4.23438
Q6.78125 9.90625 6.78125 20.5156
Q6.78125 27.4844 10.7812 32.3125
Q14.7969 37.1562 21.9219 38.8125
M18.3125 54.3906
Q18.3125 48.7344 21.8438 45.5625
Q25.3906 42.3906 31.7812 42.3906
Q38.1406 42.3906 41.7188 45.5625
Q45.3125 48.7344 45.3125 54.3906
Q45.3125 60.0625 41.7188 63.2344
Q38.1406 66.4062 31.7812 66.4062
Q25.3906 66.4062 21.8438 63.2344
Q18.3125 60.0625 18.3125 54.3906" id="BitstreamVeraSans-Roman-38"/>
     </defs>
     <g transform="translate(189.81625 29.375625)scale(0.07 -0.07)">
      <use xlink:href="#BitstreamVeraSans-Roman-70"/>
      <use x="63.4765625" xlink:href="#BitstreamVeraSans-Roman-3d"/>
      <use x="147.265625" xlink:href="#BitstreamVeraSans-Roman-30"/>
      <use x="210.888671875" xlink:href="#BitstreamVeraSans-Roman-2e"/>
      <use x="242.67578125" xlink:href="#BitstreamVeraSans-Roman-38"/>
      <use x="306.298828125" xlink:href="#BitstreamVeraSans-Roman-30"/>
     </g>
    </g>
    <g id="line2d_34">
     <path d="
M172.316 33.7003
L182.116 33.7003" style="fill:none;stroke:#ff0000;"/>
    </g>
    <g id="line2d_35"/>
    <g id="text_8">
     <!-- p=0.90 -->
     <defs>
      <path d="
M10.9844 1.51562
L10.9844 10.5
Q14.7031 8.73438 18.5 7.8125
Q22.3125 6.89062 25.9844 6.89062
Q35.75 6.89062 40.8906 13.4531
Q46.0469 20.0156 46.7812 33.4062
Q43.9531 29.2031 39.5938 26.9531
Q35.25 24.7031 29.9844 24.7031
Q19.0469 24.7031 12.6719 31.3125
Q6.29688 37.9375 6.29688 49.4219
Q6.29688 60.6406 12.9375 67.4219
Q19.5781 74.2188 30.6094 74.2188
Q43.2656 74.2188 49.9219 64.5156
Q56.5938 54.8281 56.5938 36.375
Q56.5938 19.1406 48.4062 8.85938
Q40.2344 -1.42188 26.4219 -1.42188
Q22.7031 -1.42188 18.8906 -0.6875
Q15.0938 0.046875 10.9844 1.51562
M30.6094 32.4219
Q37.25 32.4219 41.125 36.9531
Q45.0156 41.5 45.0156 49.4219
Q45.0156 57.2812 41.125 61.8438
Q37.25 66.4062 30.6094 66.4062
Q23.9688 66.4062 20.0938 61.8438
Q16.2188 57.2812 16.2188 49.4219
Q16.2188 41.5 20.0938 36.9531
Q23.9688 32.4219 30.6094 32.4219" id="BitstreamVeraSans-Roman-39"/>
     </defs>
     <g transform="translate(189.81625 36.1503125)scale(0.07 -0.07)">
      <use xlink:href="#BitstreamVeraSans-Roman-70"/>
      <use x="63.4765625" xlink:href="#BitstreamVeraSans-Roman-3d"/>
      <use x="147.265625" xlink:href="#BitstreamVeraSans-Roman-30"/>
      <use x="210.888671875" xlink:href="#BitstreamVeraSans-Roman-2e"/>
      <use x="242.67578125" xlink:href="#BitstreamVeraSans-Roman-39"/>
      <use x="306.298828125" xlink:href="#BitstreamVeraSans-Roman-30"/>
     </g>
    </g>
   </g>
  </g>
  <g id="axes_3">
   <g id="patch_7">
    <path d="
M39.5616 164.432
L220.912 164.432
L220.912 108.632
L39.5616 108.632
z
" style="fill:#ffffff;"/>
   </g>
   <g id="line2d_36">
    <path clip-path="url(#pe43f188460)" d="
M39.5616 164.432
L40.1661 163.874
L40.7706 163.316
L41.3751 162.758
L41.9796 162.2
L42.5841 161.642
L43.1886 161.084
L43.7931 160.526
L44.3976 159.968
L45.0021 159.41
L45.6066 158.852
L46.2111 158.294
L46.8156 157.736
L47.4201 157.178
L48.0246 156.62
L48.6291 156.062
L49.2336 155.504
L49.8381 154.946
L50.4426 154.388
L51.0471 153.83
L51.6516 153.272
L52.2561 152.714
L52.8606 152.156
L53.4651 151.598
L54.0696 151.04
L54.6741 150.482
L55.2786 149.924
L55.8831 149.366
L56.4876 148.808
L57.0921 148.25
L57.6966 147.692
L58.3011 147.134
L58.9056 146.576
L59.5101 146.018
L60.1146 145.46
L60.7191 144.902
L61.3236 144.344
L61.9281 143.786
L62.5326 143.228
L63.1371 142.67
L63.7416 142.112
L64.3461 141.554
L64.9506 140.996
L65.5551 140.438
L66.1596 139.88
L66.7641 139.322
L67.3686 138.764
L67.9731 138.206
L68.5776 137.648
L69.1821 137.09
L69.7866 136.532
L70.3911 135.974
L70.9956 135.416
L71.6001 134.858
L72.2046 134.3
L72.8091 133.742
L73.4136 133.184
L74.0181 132.626
L74.6226 132.068
L75.2271 131.51
L75.8316 130.952
L76.4361 130.394
L77.0406 129.836
L77.6451 129.278
L78.2496 128.72
L78.8541 128.162
L79.4586 127.604
L80.0631 127.046
L80.6676 126.488
L81.2721 125.93
L81.8766 125.372
L82.4811 124.814
L83.0856 124.256
L83.6901 123.698
L84.2946 123.14
L84.8991 122.582
L85.5036 122.024
L86.1081 121.466
L86.7126 120.908
L87.3171 120.35
L87.9216 119.792
L88.5261 119.234
L89.1306 118.676
L89.7351 118.118
L90.3396 117.56
L90.9441 117.002
L91.5486 116.444
L92.1531 115.886
L92.7576 115.328
L93.3621 114.77
L93.9666 114.212
L94.5711 113.654
L95.1756 113.096
L95.7801 112.538
L96.3846 111.98
L96.9891 111.422
L97.5936 110.864
L98.1981 110.306
L98.8026 109.748
L99.4071 109.19" style="fill:none;stroke:#000000;"/>
   </g>
   <g id="line2d_37">
    <path clip-path="url(#pe43f188460)" d="
M39.5616 163.874
L41.9796 161.642
L42.5841 162.2
L46.8156 158.294
L47.4201 158.852
L50.4426 156.062
L52.2561 157.736
L52.8606 157.178
L53.4651 157.736
L54.0696 157.178
L54.6741 157.736
L61.3236 151.598
L61.9281 152.156
L62.5326 151.598
L63.1371 152.156
L67.9731 147.692
L69.1821 148.808
L72.2046 146.018
L72.8091 146.576
L73.4136 146.018
L74.0181 146.576
L74.6226 146.018
L75.8316 147.134
L76.4361 146.576
L77.6451 147.692
L78.2496 147.134
L78.8541 147.692
L81.2721 145.46
L81.8766 146.018
L82.4811 145.46
L83.0856 146.018
L92.1531 137.648
L92.7576 138.206
L93.9666 137.09
L94.5711 137.648
L95.1756 137.09
L96.3846 138.206
L101.221 133.742
L101.825 134.3
L105.452 130.952
L106.057 131.51
L106.661 130.952
L107.266 131.51
L110.893 128.162
L111.497 128.72
L112.102 128.162
L113.915 129.836
L116.938 127.046
L117.542 127.604
L118.147 127.046
L118.751 127.604
L119.356 127.046
L119.96 127.604
L123.587 124.256
L124.192 124.814
L126.61 122.582
L127.214 123.14
L128.423 122.024
L129.632 123.14
L130.841 122.024
L131.446 122.582
L136.886 117.56
L138.7 119.234
L142.931 115.328
L143.536 115.886
L144.14 115.328
L145.349 116.444
L147.767 114.212
L148.976 115.328
L150.79 113.654
L151.394 114.212
L154.417 111.422
L155.021 111.98
L157.439 109.748
L158.648 110.864
L160.462 109.19
L162.275 110.864
L164.693 108.632
L165.298 109.19
L165.902 108.632
L217.889 108.632
L217.889 108.632" style="fill:none;opacity:0.5;stroke:#0000ff;"/>
   </g>
   <g id="line2d_38">
    <path clip-path="url(#pe43f188460)" d="
M39.5616 163.874
L41.3751 162.2
L42.5841 163.316
L43.7931 162.2
L44.3976 162.758
L48.0246 159.41
L48.6291 159.968
L49.8381 158.852
L50.4426 159.41
L51.6516 158.294
L52.8606 159.41
L53.4651 158.852
L54.0696 159.41
L56.4876 157.178
L57.0921 157.736
L57.6966 157.178
L58.3011 157.736
L60.1146 156.062
L61.3236 157.178
L63.1371 155.504
L64.3461 156.62
L64.9506 156.062
L65.5551 156.62
L66.1596 156.062
L67.9731 157.736
L69.7866 156.062
L70.3911 156.62
L74.6226 152.714
L75.8316 153.83
L77.0406 152.714
L77.6451 153.272
L79.4586 151.598
L80.0631 152.156
L83.6901 148.808
L86.1081 151.04
L89.1306 148.25
L90.3396 149.366
L90.9441 148.808
L91.5486 149.366
L93.3621 147.692
L93.9666 148.25
L95.1756 147.134
L97.5936 149.366
L100.616 146.576
L101.221 147.134
L101.825 146.576
L102.43 147.134
L105.452 144.344
L106.057 144.902
L107.87 143.228
L108.475 143.786
L110.288 142.112
L111.497 143.228
L118.751 136.532
L120.565 138.206
L122.983 135.974
L123.587 136.532
L125.401 134.858
L126.005 135.416
L127.819 133.742
L130.237 135.974
L131.446 134.858
L135.073 138.206
L135.677 137.648
L136.282 138.206
L138.7 135.974
L139.304 136.532
L141.118 134.858
L141.722 135.416
L142.931 134.3
L144.14 135.416
L145.349 134.3
L145.954 134.858
L146.558 134.3
L147.163 134.858
L147.767 134.3
L148.976 135.416
L150.185 134.3
L151.394 135.416
L153.812 133.184
L154.417 133.742
L155.626 132.626
L157.439 134.3
L158.044 133.742
L158.648 134.3
L159.253 133.742
L159.857 134.3
L161.671 132.626
L162.275 133.184
L170.738 125.372
L171.343 125.93
L171.947 125.372
L172.552 125.93
L174.97 123.698
L175.574 124.256
L176.179 123.698
L176.783 124.256
L177.992 123.14
L178.597 123.698
L182.224 120.35
L183.433 121.466
L186.455 118.676
L187.06 119.234
L188.873 117.56
L190.687 119.234
L191.291 118.676
L191.896 119.234
L192.5 118.676
L193.105 119.234
L194.918 117.56
L195.523 118.118
L196.732 117.002
L197.336 117.56
L199.754 115.328
L201.568 117.002
L202.172 116.444
L203.381 117.56
L208.822 112.538
L210.031 113.654
L212.449 111.422
L213.053 111.98
L214.262 110.864
L214.867 111.422
L217.889 108.632
L217.889 108.632" style="fill:none;opacity:0.5;stroke:#0000ff;"/>
   </g>
   <g id="line2d_39">
    <path clip-path="url(#pe43f188460)" d="
M39.5616 163.874
L40.1661 163.316
L40.7706 162.758
L41.3751 163.316
L41.9796 162.758
L42.5841 163.316
L46.8156 159.41
L47.4201 159.968
L48.6291 158.852
L49.2336 159.41
L49.8381 158.852
L51.0471 159.968
L52.8606 158.294
L55.8831 161.084
L56.4876 160.526
L57.0921 161.084
L61.3236 157.178
L63.7416 159.41
L64.3461 158.852
L65.5551 159.968
L69.7866 156.062
L70.3911 156.62
L71.6001 155.504
L72.2046 156.062
L72.8091 155.504
L73.4136 156.062
L74.6226 154.946
L75.2271 155.504
L75.8316 154.946
L76.4361 155.504
L77.6451 154.388
L78.2496 154.946
L79.4586 153.83
L81.8766 156.062
L83.0856 154.946
L83.6901 155.504
L84.2946 154.946
L85.5036 156.062
L88.5261 153.272
L89.1306 153.83
L93.9666 149.366
L94.5711 149.924
L101.825 143.228
L102.43 143.786
L106.057 140.438
L107.87 142.112
L110.288 139.88
L110.893 140.438
L112.102 139.322
L112.706 139.88
L119.356 133.742
L120.565 134.858
L125.401 130.394
L126.005 130.952
L126.61 130.394
L127.214 130.952
L128.423 129.836
L129.632 130.952
L130.841 129.836
L132.05 130.952
L133.864 129.278
L134.468 129.836
L135.073 129.278
L135.677 129.836
L136.886 128.72
L137.491 129.278
L139.909 127.046
L140.513 127.604
L141.118 127.046
L141.722 127.604
L144.14 125.372
L144.745 125.93
L148.976 122.024
L149.581 122.582
L153.208 119.234
L155.626 121.466
L156.23 120.908
L158.044 122.582
L158.648 122.024
L159.253 122.582
L160.462 121.466
L161.066 122.024
L162.275 120.908
L162.88 121.466
L165.902 118.676
L167.111 119.792
L167.716 119.234
L169.529 120.908
L170.134 120.35
L170.738 120.908
L171.947 119.792
L172.552 120.35
L176.783 116.444
L177.388 117.002
L179.806 114.77
L180.41 115.328
L181.015 114.77
L181.619 115.328
L182.224 114.77
L183.433 115.886
L184.037 115.328
L184.642 115.886
L185.851 114.77
L186.455 115.328
L188.873 113.096
L189.478 113.654
L190.082 113.096
L191.291 114.212
L196.127 109.748
L196.732 110.306
L198.545 108.632
L217.889 108.632
L217.889 108.632" style="fill:none;opacity:0.5;stroke:#0000ff;"/>
   </g>
   <g id="line2d_40">
    <path clip-path="url(#pe43f188460)" d="
M39.5616 163.874
L40.1661 163.316
L40.7706 162.758
L41.3751 163.316
L41.9796 162.758
L43.1886 163.874
L43.7931 163.316
L44.3976 163.874
L45.0021 163.316
L45.6066 163.874
L49.2336 160.526
L49.8381 161.084
L50.4426 160.526
L51.6516 161.642
L52.2561 161.084
L52.8606 161.642
L55.8831 158.852
L56.4876 159.41
L57.0921 158.852
L57.6966 159.41
L59.5101 157.736
L60.1146 158.294
L63.1371 155.504
L63.7416 156.062
L64.3461 155.504
L64.9506 156.062
L65.5551 155.504
L66.1596 156.062
L68.5776 153.83
L69.7866 154.946
L71.6001 153.272
L72.2046 153.83
L74.0181 152.156
L75.8316 153.83
L78.8541 151.04
L80.0631 152.156
L81.8766 150.482
L82.4811 151.04
L83.6901 149.924
L84.8991 151.04
L86.1081 149.924
L86.7126 150.482
L87.3171 149.924
L88.5261 151.04
L93.3621 146.576
L93.9666 147.134
L96.3846 144.902
L96.9891 145.46
L100.616 142.112
L101.221 142.67
L103.034 140.996
L104.243 142.112
L108.475 138.206
L109.079 138.764
L112.706 135.416
L114.52 137.09
L118.147 133.742
L118.751 134.3
L121.169 132.068
L121.774 132.626
L123.587 130.952
L124.192 131.51
L126.61 129.278
L127.214 129.836
L129.028 128.162
L129.632 128.72
L130.237 128.162
L130.841 128.72
L133.259 126.488
L133.864 127.046
L138.095 123.14
L139.304 124.256
L139.909 123.698
L140.513 124.256
L145.954 119.234
L146.558 119.792
L148.372 118.118
L148.976 118.676
L150.79 117.002
L151.394 117.56
L151.999 117.002
L152.603 117.56
L159.253 111.422
L160.462 112.538
L161.066 111.98
L161.671 112.538
L165.902 108.632
L217.889 108.632
L217.889 108.632" style="fill:none;opacity:0.5;stroke:#0000ff;"/>
   </g>
   <g id="line2d_41">
    <path clip-path="url(#pe43f188460)" d="
M39.5616 163.874
L40.1661 163.316
L40.7706 163.874
L42.5841 162.2
L43.7931 163.316
L47.4201 159.968
L48.6291 161.084
L49.8381 159.968
L50.4426 160.526
L54.6741 156.62
L55.2786 157.178
L56.4876 156.062
L57.0921 156.62
L61.9281 152.156
L63.1371 153.272
L64.3461 152.156
L64.9506 152.714
L68.5776 149.366
L69.1821 149.924
L70.9956 148.25
L72.2046 149.366
L74.0181 147.692
L74.6226 148.25
L75.2271 147.692
L75.8316 148.25
L80.6676 143.786
L81.8766 144.902
L86.1081 140.996
L86.7126 141.554
L87.3171 140.996
L87.9216 141.554
L89.7351 139.88
L90.3396 140.438
L90.9441 139.88
L91.5486 140.438
L93.9666 138.206
L94.5711 138.764
L96.3846 137.09
L97.5936 138.206
L100.616 135.416
L101.221 135.974
L102.43 134.858
L103.034 135.416
L107.87 130.952
L108.475 131.51
L110.893 129.278
L111.497 129.836
L113.311 128.162
L115.124 129.836
L115.729 129.278
L116.333 129.836
L120.565 125.93
L121.169 126.488
L121.774 125.93
L122.378 126.488
L122.983 125.93
L123.587 126.488
L124.192 125.93
L124.796 126.488
L129.028 122.582
L129.632 123.14
L132.655 120.35
L133.259 120.908
L133.864 120.35
L134.468 120.908
L135.073 120.35
L135.677 120.908
L136.282 120.35
L136.886 120.908
L138.095 119.792
L138.7 120.35
L139.909 119.234
L141.118 120.35
L142.931 118.676
L143.536 119.234
L144.14 118.676
L144.745 119.234
L146.558 117.56
L147.767 118.676
L148.976 117.56
L150.185 118.676
L153.208 115.886
L153.812 116.444
L156.23 114.212
L156.835 114.77
L158.648 113.096
L159.253 113.654
L159.857 113.096
L161.671 114.77
L162.275 114.212
L162.88 114.77
L163.484 114.212
L164.089 114.77
L165.298 113.654
L165.902 114.212
L167.111 113.096
L167.716 113.654
L168.32 113.096
L168.925 113.654
L169.529 113.096
L170.134 113.654
L172.552 111.422
L173.761 112.538
L174.97 111.422
L176.783 113.096
L177.388 112.538
L177.992 113.096
L179.201 111.98
L179.806 112.538
L184.037 108.632
L217.889 108.632
L217.889 108.632" style="fill:none;opacity:0.5;stroke:#0000ff;"/>
   </g>
   <g id="line2d_42">
    <path clip-path="url(#pe43f188460)" d="
M39.5616 163.874
L40.1661 163.316
L40.7706 162.758
L41.3751 163.316
L41.9796 162.758
L42.5841 163.316
L45.6066 160.526
L46.2111 161.084
L47.4201 159.968
L48.0246 160.526
L49.2336 159.41
L49.8381 159.968
L51.6516 158.294
L52.2561 158.852
L55.2786 156.062
L55.8831 156.62
L59.5101 153.272
L60.1146 153.83
L62.5326 151.598
L63.1371 152.156
L64.3461 151.04
L66.1596 152.714
L66.7641 152.156
L67.9731 153.272
L68.5776 152.714
L69.1821 153.272
L71.6001 151.04
L72.2046 151.598
L72.8091 151.04
L74.0181 152.156
L74.6226 151.598
L75.8316 152.714
L76.4361 152.156
L77.6451 153.272
L79.4586 151.598
L81.2721 153.272
L83.0856 151.598
L83.6901 152.156
L89.7351 146.576
L90.3396 147.134
L91.5486 146.018
L92.1531 146.576
L94.5711 144.344
L95.1756 144.902
L110.288 130.952
L112.102 132.626
L114.52 130.394
L115.124 130.952
L117.542 128.72
L118.147 129.278
L118.751 128.72
L120.565 130.394
L122.378 128.72
L123.587 129.836
L129.028 124.814
L129.632 125.372
L130.237 124.814
L130.841 125.372
L132.655 123.698
L133.259 124.256
L133.864 123.698
L134.468 124.256
L135.073 123.698
L136.886 125.372
L139.304 123.14
L139.909 123.698
L141.722 122.024
L142.327 122.582
L142.931 122.024
L143.536 122.582
L145.349 120.908
L147.163 122.582
L147.767 122.024
L149.581 123.698
L150.185 123.14
L151.394 124.256
L160.462 115.886
L161.066 116.444
L161.671 115.886
L162.88 117.002
L163.484 116.444
L164.089 117.002
L165.902 115.328
L166.507 115.886
L167.111 115.328
L168.32 116.444
L171.343 113.654
L171.947 114.212
L172.552 113.654
L173.761 114.77
L174.365 114.212
L174.97 114.77
L181.619 108.632
L182.224 109.19
L182.828 108.632
L217.889 108.632
L217.889 108.632" style="fill:none;opacity:0.5;stroke:#0000ff;"/>
   </g>
   <g id="line2d_43">
    <path clip-path="url(#pe43f188460)" d="
M39.5616 163.874
L44.3976 159.41
L45.0021 159.968
L46.8156 158.294
L48.0246 159.41
L49.8381 157.736
L50.4426 158.294
L52.8606 156.062
L53.4651 156.62
L54.6741 155.504
L55.8831 156.62
L60.1146 152.714
L60.7191 153.272
L64.3461 149.924
L64.9506 150.482
L65.5551 149.924
L66.7641 151.04
L69.1821 148.808
L69.7866 149.366
L72.8091 146.576
L75.2271 148.808
L76.4361 147.692
L77.6451 148.808
L78.8541 147.692
L79.4586 148.25
L87.3171 140.996
L87.9216 141.554
L89.1306 140.438
L89.7351 140.996
L92.1531 138.764
L92.7576 139.322
L93.9666 138.206
L95.1756 139.322
L101.221 133.742
L101.825 134.3
L106.661 129.836
L107.266 130.394
L113.311 124.814
L114.52 125.93
L115.729 124.814
L116.333 125.372
L116.938 124.814
L117.542 125.372
L118.147 124.814
L118.751 125.372
L121.169 123.14
L121.774 123.698
L122.378 123.14
L122.983 123.698
L126.61 120.35
L127.214 120.908
L132.655 115.886
L133.864 117.002
L134.468 116.444
L135.073 117.002
L144.14 108.632
L217.889 108.632
L217.889 108.632" style="fill:none;opacity:0.5;stroke:#0000ff;"/>
   </g>
   <g id="line2d_44">
    <path clip-path="url(#pe43f188460)" d="
M39.5616 163.874
L41.3751 162.2
L41.9796 162.758
L42.5841 162.2
L43.1886 162.758
L43.7931 162.2
L44.3976 162.758
L45.6066 161.642
L46.2111 162.2
L46.8156 161.642
L47.4201 162.2
L48.6291 161.084
L49.2336 161.642
L51.0471 159.968
L51.6516 160.526
L52.2561 159.968
L52.8606 160.526
L54.6741 158.852
L55.8831 159.968
L56.4876 159.41
L57.6966 160.526
L58.3011 159.968
L58.9056 160.526
L60.1146 159.41
L60.7191 159.968
L63.1371 157.736
L63.7416 158.294
L64.3461 157.736
L64.9506 158.294
L67.3686 156.062
L67.9731 156.62
L70.3911 154.388
L71.6001 155.504
L74.0181 153.272
L74.6226 153.83
L78.8541 149.924
L79.4586 150.482
L80.6676 149.366
L81.2721 149.924
L85.5036 146.018
L86.1081 146.576
L87.9216 144.902
L88.5261 145.46
L89.1306 144.902
L89.7351 145.46
L93.3621 142.112
L93.9666 142.67
L100.012 137.09
L100.616 137.648
L101.221 137.09
L102.43 138.206
L103.639 137.09
L105.452 138.764
L106.057 138.206
L106.661 138.764
L107.87 137.648
L108.475 138.206
L109.079 137.648
L110.288 138.764
L110.893 138.206
L111.497 138.764
L113.915 136.532
L115.124 137.648
L116.333 136.532
L116.938 137.09
L118.147 135.974
L118.751 136.532
L121.169 134.3
L121.774 134.858
L124.796 132.068
L125.401 132.626
L126.61 131.51
L127.214 132.068
L128.423 130.952
L129.028 131.51
L129.632 130.952
L131.446 132.626
L135.677 128.72
L136.282 129.278
L137.491 128.162
L138.095 128.72
L140.513 126.488
L141.118 127.046
L141.722 126.488
L142.327 127.046
L143.536 125.93
L144.14 126.488
L146.558 124.256
L147.163 124.814
L148.976 123.14
L149.581 123.698
L151.394 122.024
L151.999 122.582
L152.603 122.024
L153.208 122.582
L153.812 122.024
L154.417 122.582
L155.021 122.024
L155.626 122.582
L157.439 120.908
L158.648 122.024
L159.857 120.908
L160.462 121.466
L162.88 119.234
L163.484 119.792
L165.298 118.118
L165.902 118.676
L166.507 118.118
L167.111 118.676
L167.716 118.118
L168.925 119.234
L170.738 117.56
L171.343 118.118
L171.947 117.56
L172.552 118.118
L174.365 116.444
L174.97 117.002
L176.179 115.886
L177.388 117.002
L177.992 116.444
L179.806 118.118
L180.41 117.56
L181.015 118.118
L182.828 116.444
L183.433 117.002
L184.037 116.444
L184.642 117.002
L185.246 116.444
L185.851 117.002
L187.664 115.328
L188.269 115.886
L188.873 115.328
L190.687 117.002
L191.291 116.444
L191.896 117.002
L194.314 114.77
L194.918 115.328
L198.545 111.98
L199.754 113.096
L203.381 109.748
L203.986 110.306
L205.799 108.632
L217.889 108.632
L217.889 108.632" style="fill:none;opacity:0.5;stroke:#0000ff;"/>
   </g>
   <g id="line2d_45">
    <path clip-path="url(#pe43f188460)" d="
M39.5616 163.874
L45.6066 158.294
L46.2111 158.852
L46.8156 158.294
L47.4201 158.852
L51.6516 154.946
L52.2561 155.504
L54.6741 153.272
L55.2786 153.83
L59.5101 149.924
L60.1146 150.482
L61.3236 149.366
L61.9281 149.924
L62.5326 149.366
L64.3461 151.04
L67.9731 147.692
L68.5776 148.25
L70.3911 146.576
L70.9956 147.134
L71.6001 146.576
L72.2046 147.134
L73.4136 146.018
L74.0181 146.576
L74.6226 146.018
L75.2271 146.576
L78.2496 143.786
L78.8541 144.344
L80.6676 142.67
L81.2721 143.228
L81.8766 142.67
L82.4811 143.228
L83.6901 142.112
L84.2946 142.67
L86.1081 140.996
L86.7126 141.554
L88.5261 139.88
L89.7351 140.996
L94.5711 136.532
L95.1756 137.09
L96.3846 135.974
L96.9891 136.532
L97.5936 135.974
L98.1981 136.532
L101.825 133.184
L102.43 133.742
L103.639 132.626
L104.848 133.742
L106.661 132.068
L107.87 133.184
L110.288 130.952
L110.893 131.51
L112.102 130.394
L113.311 131.51
L115.124 129.836
L115.729 130.394
L117.542 128.72
L118.751 129.836
L120.565 128.162
L121.774 129.278
L127.819 123.698
L129.028 124.814
L132.655 121.466
L133.259 122.024
L134.468 120.908
L135.677 122.024
L138.7 119.234
L139.909 120.35
L140.513 119.792
L141.118 120.35
L141.722 119.792
L142.327 120.35
L142.931 119.792
L143.536 120.35
L145.349 118.676
L145.954 119.234
L150.185 115.328
L150.79 115.886
L152.603 114.212
L153.812 115.328
L161.066 108.632
L217.889 108.632
L217.889 108.632" style="fill:none;opacity:0.5;stroke:#0000ff;"/>
   </g>
   <g id="line2d_46">
    <path clip-path="url(#pe43f188460)" d="
M39.5616 163.874
L41.9796 161.642
L42.5841 162.2
L43.7931 161.084
L44.3976 161.642
L46.8156 159.41
L47.4201 159.968
L48.0246 159.41
L48.6291 159.968
L50.4426 158.294
L51.6516 159.41
L53.4651 157.736
L54.0696 158.294
L58.3011 154.388
L59.5101 155.504
L60.7191 154.388
L61.3236 154.946
L67.3686 149.366
L67.9731 149.924
L71.6001 146.576
L72.2046 147.134
L72.8091 146.576
L73.4136 147.134
L77.0406 143.786
L78.2496 144.902
L78.8541 144.344
L79.4586 144.902
L81.2721 143.228
L83.0856 144.902
L86.7126 141.554
L87.9216 142.67
L90.9441 139.88
L91.5486 140.438
L92.1531 139.88
L93.9666 141.554
L95.1756 140.438
L95.7801 140.996
L98.8026 138.206
L100.616 139.88
L104.848 135.974
L106.057 137.09
L109.684 133.742
L110.288 134.3
L112.706 132.068
L113.311 132.626
L118.147 128.162
L118.751 128.72
L119.96 127.604
L120.565 128.162
L121.169 127.604
L123.587 129.836
L126.005 127.604
L130.841 132.068
L131.446 131.51
L132.655 132.626
L136.282 129.278
L136.886 129.836
L138.095 128.72
L138.7 129.278
L139.304 128.72
L140.513 129.836
L141.722 128.72
L142.327 129.278
L143.536 128.162
L144.14 128.72
L146.558 126.488
L147.767 127.604
L148.976 126.488
L149.581 127.046
L154.417 122.582
L156.23 124.256
L161.671 119.234
L162.88 120.35
L169.529 114.212
L172.552 117.002
L173.156 116.444
L173.761 117.002
L174.365 116.444
L175.574 117.56
L177.388 115.886
L179.201 117.56
L184.642 112.538
L185.246 113.096
L188.873 109.748
L190.082 110.864
L192.5 108.632
L193.105 109.19
L193.709 108.632
L217.889 108.632
L217.889 108.632" style="fill:none;opacity:0.5;stroke:#0000ff;"/>
   </g>
   <g id="matplotlib.axis_3">
    <g id="xtick_5">
     <g id="line2d_47">
      <g>
       <use style="stroke:#000000;stroke-linecap:butt;stroke-width:0.5;" x="39.5615625" xlink:href="#mcb557df647" y="164.43203125"/>
      </g>
     </g>
     <g id="line2d_48">
      <g>
       <use style="stroke:#000000;stroke-linecap:butt;stroke-width:0.5;" x="39.5615625" xlink:href="#mdad270ee8e" y="108.63203125"/>
      </g>
     </g>
     <g id="text_9">
      <!-- 0 -->
      <g transform="translate(37.5459375 174.36953125)scale(0.08 -0.08)">
       <use xlink:href="#BitstreamVeraSans-Roman-30"/>
      </g>
     </g>
    </g>
    <g id="xtick_6">
     <g id="line2d_49">
      <g>
       <use style="stroke:#000000;stroke-linecap:butt;stroke-width:0.5;" x="69.7865625" xlink:href="#mcb557df647" y="164.43203125"/>
      </g>
     </g>
     <g id="line2d_50">
      <g>
       <use style="stroke:#000000;stroke-linecap:butt;stroke-width:0.5;" x="69.7865625" xlink:href="#mdad270ee8e" y="108.63203125"/>
      </g>
     </g>
     <g id="text_10">
      <!-- 50 -->
      <defs>
       <path d="
M10.7969 72.9062
L49.5156 72.9062
L49.5156 64.5938
L19.8281 64.5938
L19.8281 46.7344
Q21.9688 47.4688 24.1094 47.8281
Q26.2656 48.1875 28.4219 48.1875
Q40.625 48.1875 47.75 41.5
Q54.8906 34.8125 54.8906 23.3906
Q54.8906 11.625 47.5625 5.09375
Q40.2344 -1.42188 26.9062 -1.42188
Q22.3125 -1.42188 17.5469 -0.640625
Q12.7969 0.140625 7.71875 1.70312
L7.71875 11.625
Q12.1094 9.23438 16.7969 8.0625
Q21.4844 6.89062 26.7031 6.89062
Q35.1562 6.89062 40.0781 11.3281
Q45.0156 15.7656 45.0156 23.3906
Q45.0156 31 40.0781 35.4375
Q35.1562 39.8906 26.7031 39.8906
Q22.75 39.8906 18.8125 39.0156
Q14.8906 38.1406 10.7969 36.2812
z
" id="BitstreamVeraSans-Roman-35"/>
      </defs>
      <g transform="translate(65.2709375 174.36953125)scale(0.08 -0.08)">
       <use xlink:href="#BitstreamVeraSans-Roman-35"/>
       <use x="63.623046875" xlink:href="#BitstreamVeraSans-Roman-30"/>
      </g>
     </g>
    </g>
    <g id="xtick_7">
     <g id="line2d_51">
      <g>
       <use style="stroke:#000000;stroke-linecap:butt;stroke-width:0.5;" x="100.0115625" xlink:href="#mcb557df647" y="164.43203125"/>
      </g>
     </g>
     <g id="line2d_52">
      <g>
       <use style="stroke:#000000;stroke-linecap:butt;stroke-width:0.5;" x="100.0115625" xlink:href="#mdad270ee8e" y="108.63203125"/>
      </g>
     </g>
     <g id="text_11">
      <!-- 100 -->
      <g transform="translate(93.0815625 174.36953125)scale(0.08 -0.08)">
       <use xlink:href="#BitstreamVeraSans-Roman-31"/>
       <use x="63.623046875" xlink:href="#BitstreamVeraSans-Roman-30"/>
       <use x="127.24609375" xlink:href="#BitstreamVeraSans-Roman-30"/>
      </g>
     </g>
    </g>
    <g id="xtick_8">
     <g id="line2d_53">
      <g>
       <use style="stroke:#000000;stroke-linecap:butt;stroke-width:0.5;" x="130.2365625" xlink:href="#mcb557df647" y="164.43203125"/>
      </g>
     </g>
     <g id="line2d_54">
      <g>
       <use style="stroke:#000000;stroke-linecap:butt;stroke-width:0.5;" x="130.2365625" xlink:href="#mdad270ee8e" y="108.63203125"/>
      </g>
     </g>
     <g id="text_12">
      <!-- 150 -->
      <g transform="translate(123.3065625 174.36953125)scale(0.08 -0.08)">
       <use xlink:href="#BitstreamVeraSans-Roman-31"/>
       <use x="63.623046875" xlink:href="#BitstreamVeraSans-Roman-35"/>
       <use x="127.24609375" xlink:href="#BitstreamVeraSans-Roman-30"/>
      </g>
     </g>
    </g>
    <g id="xtick_9">
     <g id="line2d_55">
      <g>
       <use style="stroke:#000000;stroke-linecap:butt;stroke-width:0.5;" x="160.4615625" xlink:href="#mcb557df647" y="164.43203125"/>
      </g>
     </g>
     <g id="line2d_56">
      <g>
       <use style="stroke:#000000;stroke-linecap:butt;stroke-width:0.5;" x="160.4615625" xlink:href="#mdad270ee8e" y="108.63203125"/>
      </g>
     </g>
     <g id="text_13">
      <!-- 200 -->
      <g transform="translate(153.3853125 174.36953125)scale(0.08 -0.08)">
       <use xlink:href="#BitstreamVeraSans-Roman-32"/>
       <use x="63.623046875" xlink:href="#BitstreamVeraSans-Roman-30"/>
       <use x="127.24609375" xlink:href="#BitstreamVeraSans-Roman-30"/>
      </g>
     </g>
    </g>
    <g id="xtick_10">
     <g id="line2d_57">
      <g>
       <use style="stroke:#000000;stroke-linecap:butt;stroke-width:0.5;" x="190.6865625" xlink:href="#mcb557df647" y="164.43203125"/>
      </g>
     </g>
     <g id="line2d_58">
      <g>
       <use style="stroke:#000000;stroke-linecap:butt;stroke-width:0.5;" x="190.6865625" xlink:href="#mdad270ee8e" y="108.63203125"/>
      </g>
     </g>
     <g id="text_14">
      <!-- 250 -->
      <g transform="translate(183.6103125 174.36953125)scale(0.08 -0.08)">
       <use xlink:href="#BitstreamVeraSans-Roman-32"/>
       <use x="63.623046875" xlink:href="#BitstreamVeraSans-Roman-35"/>
       <use x="127.24609375" xlink:href="#BitstreamVeraSans-Roman-30"/>
      </g>
     </g>
    </g>
    <g id="xtick_11">
     <g id="line2d_59">
      <g>
       <use style="stroke:#000000;stroke-linecap:butt;stroke-width:0.5;" x="220.9115625" xlink:href="#mcb557df647" y="164.43203125"/>
      </g>
     </g>
     <g id="line2d_60">
      <g>
       <use style="stroke:#000000;stroke-linecap:butt;stroke-width:0.5;" x="220.9115625" xlink:href="#mdad270ee8e" y="108.63203125"/>
      </g>
     </g>
     <g id="text_15">
      <!-- 300 -->
      <g transform="translate(213.8471875 174.36953125)scale(0.08 -0.08)">
       <use xlink:href="#BitstreamVeraSans-Roman-33"/>
       <use x="63.623046875" xlink:href="#BitstreamVeraSans-Roman-30"/>
       <use x="127.24609375" xlink:href="#BitstreamVeraSans-Roman-30"/>
      </g>
     </g>
    </g>
    <g id="text_16">
     <!-- Time Step -->
     <defs>
      <path d="
M56.2031 29.5938
L56.2031 25.2031
L14.8906 25.2031
Q15.4844 15.9219 20.4844 11.0625
Q25.4844 6.20312 34.4219 6.20312
Q39.5938 6.20312 44.4531 7.46875
Q49.3125 8.73438 54.1094 11.2812
L54.1094 2.78125
Q49.2656 0.734375 44.1875 -0.34375
Q39.1094 -1.42188 33.8906 -1.42188
Q20.7969 -1.42188 13.1562 6.1875
Q5.51562 13.8125 5.51562 26.8125
Q5.51562 40.2344 12.7656 48.1094
Q20.0156 56 32.3281 56
Q43.3594 56 49.7812 48.8906
Q56.2031 41.7969 56.2031 29.5938
M47.2188 32.2344
Q47.125 39.5938 43.0938 43.9844
Q39.0625 48.3906 32.4219 48.3906
Q24.9062 48.3906 20.3906 44.1406
Q15.875 39.8906 15.1875 32.1719
z
" id="BitstreamVeraSans-Roman-65"/>
      <path d="
M52 44.1875
Q55.375 50.25 60.0625 53.125
Q64.75 56 71.0938 56
Q79.6406 56 84.2812 50.0156
Q88.9219 44.0469 88.9219 33.0156
L88.9219 0
L79.8906 0
L79.8906 32.7188
Q79.8906 40.5781 77.0938 44.375
Q74.3125 48.1875 68.6094 48.1875
Q61.625 48.1875 57.5625 43.5469
Q53.5156 38.9219 53.5156 30.9062
L53.5156 0
L44.4844 0
L44.4844 32.7188
Q44.4844 40.625 41.7031 44.4062
Q38.9219 48.1875 33.1094 48.1875
Q26.2188 48.1875 22.1562 43.5312
Q18.1094 38.875 18.1094 30.9062
L18.1094 0
L9.07812 0
L9.07812 54.6875
L18.1094 54.6875
L18.1094 46.1875
Q21.1875 51.2188 25.4844 53.6094
Q29.7812 56 35.6875 56
Q41.6562 56 45.8281 52.9688
Q50 49.9531 52 44.1875" id="BitstreamVeraSans-Roman-6d"/>
      <path d="
M18.3125 70.2188
L18.3125 54.6875
L36.8125 54.6875
L36.8125 47.7031
L18.3125 47.7031
L18.3125 18.0156
Q18.3125 11.3281 20.1406 9.42188
Q21.9688 7.51562 27.5938 7.51562
L36.8125 7.51562
L36.8125 0
L27.5938 0
Q17.1875 0 13.2344 3.875
Q9.28125 7.76562 9.28125 18.0156
L9.28125 47.7031
L2.6875 47.7031
L2.6875 54.6875
L9.28125 54.6875
L9.28125 70.2188
z
" id="BitstreamVeraSans-Roman-74"/>
      <path d="
M53.5156 70.5156
L53.5156 60.8906
Q47.9062 63.5781 42.9219 64.8906
Q37.9375 66.2188 33.2969 66.2188
Q25.25 66.2188 20.875 63.0938
Q16.5 59.9688 16.5 54.2031
Q16.5 49.3594 19.4062 46.8906
Q22.3125 44.4375 30.4219 42.9219
L36.375 41.7031
Q47.4062 39.5938 52.6562 34.2969
Q57.9062 29 57.9062 20.125
Q57.9062 9.51562 50.7969 4.04688
Q43.7031 -1.42188 29.9844 -1.42188
Q24.8125 -1.42188 18.9688 -0.25
Q13.1406 0.921875 6.89062 3.21875
L6.89062 13.375
Q12.8906 10.0156 18.6562 8.29688
Q24.4219 6.59375 29.9844 6.59375
Q38.4219 6.59375 43.0156 9.90625
Q47.6094 13.2344 47.6094 19.3906
Q47.6094 24.75 44.3125 27.7812
Q41.0156 30.8125 33.5 32.3281
L27.4844 33.5
Q16.4531 35.6875 11.5156 40.375
Q6.59375 45.0625 6.59375 53.4219
Q6.59375 63.0938 13.4062 68.6562
Q20.2188 74.2188 32.1719 74.2188
Q37.3125 74.2188 42.625 73.2812
Q47.9531 72.3594 53.5156 70.5156" id="BitstreamVeraSans-Roman-53"/>
      <path d="
M9.42188 54.6875
L18.4062 54.6875
L18.4062 0
L9.42188 0
z

M9.42188 75.9844
L18.4062 75.9844
L18.4062 64.5938
L9.42188 64.5938
z
" id="BitstreamVeraSans-Roman-69"/>
     </defs>
     <g transform="translate(105.28734375 187.08171875)scale(0.1 -0.1)">
      <use xlink:href="#BitstreamVeraSans-Roman-54"/>
      <use x="57.958984375" xlink:href="#BitstreamVeraSans-Roman-69"/>
      <use x="85.7421875" xlink:href="#BitstreamVeraSans-Roman-6d"/>
      <use x="183.154296875" xlink:href="#BitstreamVeraSans-Roman-65"/>
      <use x="244.677734375" xlink:href="#BitstreamVeraSans-Roman-20"/>
      <use x="276.46484375" xlink:href="#BitstreamVeraSans-Roman-53"/>
      <use x="339.94140625" xlink:href="#BitstreamVeraSans-Roman-74"/>
      <use x="379.150390625" xlink:href="#BitstreamVeraSans-Roman-65"/>
      <use x="440.673828125" xlink:href="#BitstreamVeraSans-Roman-70"/>
     </g>
    </g>
   </g>
   <g id="matplotlib.axis_4">
    <g id="ytick_10">
     <g id="line2d_61">
      <g>
       <use style="stroke:#000000;stroke-linecap:butt;stroke-width:0.5;" x="39.5615625" xlink:href="#mc8fcea1516" y="164.43203125"/>
      </g>
     </g>
     <g id="line2d_62">
      <g>
       <use style="stroke:#000000;stroke-linecap:butt;stroke-width:0.5;" x="220.9115625" xlink:href="#m0d5b0a6425" y="164.43203125"/>
      </g>
     </g>
     <g id="text_17">
      <!-- 0 -->
      <g transform="translate(31.5303125 167.34390625)scale(0.08 -0.08)">
       <use xlink:href="#BitstreamVeraSans-Roman-30"/>
      </g>
     </g>
    </g>
    <g id="ytick_11">
     <g id="line2d_63">
      <g>
       <use style="stroke:#000000;stroke-linecap:butt;stroke-width:0.5;" x="39.5615625" xlink:href="#mc8fcea1516" y="153.27203125"/>
      </g>
     </g>
     <g id="line2d_64">
      <g>
       <use style="stroke:#000000;stroke-linecap:butt;stroke-width:0.5;" x="220.9115625" xlink:href="#m0d5b0a6425" y="153.27203125"/>
      </g>
     </g>
     <g id="text_18">
      <!-- 20 -->
      <g transform="translate(26.4990625 156.18390625)scale(0.08 -0.08)">
       <use xlink:href="#BitstreamVeraSans-Roman-32"/>
       <use x="63.623046875" xlink:href="#BitstreamVeraSans-Roman-30"/>
      </g>
     </g>
    </g>
    <g id="ytick_12">
     <g id="line2d_65">
      <g>
       <use style="stroke:#000000;stroke-linecap:butt;stroke-width:0.5;" x="39.5615625" xlink:href="#mc8fcea1516" y="142.11203125"/>
      </g>
     </g>
     <g id="line2d_66">
      <g>
       <use style="stroke:#000000;stroke-linecap:butt;stroke-width:0.5;" x="220.9115625" xlink:href="#m0d5b0a6425" y="142.11203125"/>
      </g>
     </g>
     <g id="text_19">
      <!-- 40 -->
      <g transform="translate(26.3040625 145.02390625)scale(0.08 -0.08)">
       <use xlink:href="#BitstreamVeraSans-Roman-34"/>
       <use x="63.623046875" xlink:href="#BitstreamVeraSans-Roman-30"/>
      </g>
     </g>
    </g>
    <g id="ytick_13">
     <g id="line2d_67">
      <g>
       <use style="stroke:#000000;stroke-linecap:butt;stroke-width:0.5;" x="39.5615625" xlink:href="#mc8fcea1516" y="130.95203125"/>
      </g>
     </g>
     <g id="line2d_68">
      <g>
       <use style="stroke:#000000;stroke-linecap:butt;stroke-width:0.5;" x="220.9115625" xlink:href="#m0d5b0a6425" y="130.95203125"/>
      </g>
     </g>
     <g id="text_20">
      <!-- 60 -->
      <defs>
       <path d="
M33.0156 40.375
Q26.375 40.375 22.4844 35.8281
Q18.6094 31.2969 18.6094 23.3906
Q18.6094 15.5312 22.4844 10.9531
Q26.375 6.39062 33.0156 6.39062
Q39.6562 6.39062 43.5312 10.9531
Q47.4062 15.5312 47.4062 23.3906
Q47.4062 31.2969 43.5312 35.8281
Q39.6562 40.375 33.0156 40.375
M52.5938 71.2969
L52.5938 62.3125
Q48.875 64.0625 45.0938 64.9844
Q41.3125 65.9219 37.5938 65.9219
Q27.8281 65.9219 22.6719 59.3281
Q17.5312 52.7344 16.7969 39.4062
Q19.6719 43.6562 24.0156 45.9219
Q28.375 48.1875 33.5938 48.1875
Q44.5781 48.1875 50.9531 41.5156
Q57.3281 34.8594 57.3281 23.3906
Q57.3281 12.1562 50.6875 5.35938
Q44.0469 -1.42188 33.0156 -1.42188
Q20.3594 -1.42188 13.6719 8.26562
Q6.98438 17.9688 6.98438 36.375
Q6.98438 53.6562 15.1875 63.9375
Q23.3906 74.2188 37.2031 74.2188
Q40.9219 74.2188 44.7031 73.4844
Q48.4844 72.75 52.5938 71.2969" id="BitstreamVeraSans-Roman-36"/>
      </defs>
      <g transform="translate(26.4715625 133.86390625)scale(0.08 -0.08)">
       <use xlink:href="#BitstreamVeraSans-Roman-36"/>
       <use x="63.623046875" xlink:href="#BitstreamVeraSans-Roman-30"/>
      </g>
     </g>
    </g>
    <g id="ytick_14">
     <g id="line2d_69">
      <g>
       <use style="stroke:#000000;stroke-linecap:butt;stroke-width:0.5;" x="39.5615625" xlink:href="#mc8fcea1516" y="119.79203125"/>
      </g>
     </g>
     <g id="line2d_70">
      <g>
       <use style="stroke:#000000;stroke-linecap:butt;stroke-width:0.5;" x="220.9115625" xlink:href="#m0d5b0a6425" y="119.79203125"/>
      </g>
     </g>
     <g id="text_21">
      <!-- 80 -->
      <g transform="translate(26.4553125 122.70390625)scale(0.08 -0.08)">
       <use xlink:href="#BitstreamVeraSans-Roman-38"/>
       <use x="63.623046875" xlink:href="#BitstreamVeraSans-Roman-30"/>
      </g>
     </g>
    </g>
    <g id="ytick_15">
     <g id="line2d_71">
      <g>
       <use style="stroke:#000000;stroke-linecap:butt;stroke-width:0.5;" x="39.5615625" xlink:href="#mc8fcea1516" y="108.63203125"/>
      </g>
     </g>
     <g id="line2d_72">
      <g>
       <use style="stroke:#000000;stroke-linecap:butt;stroke-width:0.5;" x="220.9115625" xlink:href="#m0d5b0a6425" y="108.63203125"/>
      </g>
     </g>
     <g id="text_22">
      <!-- 100 -->
      <g transform="translate(21.7015625 111.54390625)scale(0.08 -0.08)">
       <use xlink:href="#BitstreamVeraSans-Roman-31"/>
       <use x="63.623046875" xlink:href="#BitstreamVeraSans-Roman-30"/>
       <use x="127.24609375" xlink:href="#BitstreamVeraSans-Roman-30"/>
      </g>
     </g>
    </g>
    <g id="text_23">
     <!-- Seq. Pos. -->
     <defs>
      <path d="
M19.6719 64.7969
L19.6719 37.4062
L32.0781 37.4062
Q38.9688 37.4062 42.7188 40.9688
Q46.4844 44.5312 46.4844 51.125
Q46.4844 57.6719 42.7188 61.2344
Q38.9688 64.7969 32.0781 64.7969
z

M9.8125 72.9062
L32.0781 72.9062
Q44.3438 72.9062 50.6094 67.3594
Q56.8906 61.8125 56.8906 51.125
Q56.8906 40.3281 50.6094 34.8125
Q44.3438 29.2969 32.0781 29.2969
L19.6719 29.2969
L19.6719 0
L9.8125 0
z
" id="BitstreamVeraSans-Roman-50"/>
      <path d="
M30.6094 48.3906
Q23.3906 48.3906 19.1875 42.75
Q14.9844 37.1094 14.9844 27.2969
Q14.9844 17.4844 19.1562 11.8438
Q23.3438 6.20312 30.6094 6.20312
Q37.7969 6.20312 41.9844 11.8594
Q46.1875 17.5312 46.1875 27.2969
Q46.1875 37.0156 41.9844 42.7031
Q37.7969 48.3906 30.6094 48.3906
M30.6094 56
Q42.3281 56 49.0156 48.375
Q55.7188 40.7656 55.7188 27.2969
Q55.7188 13.875 49.0156 6.21875
Q42.3281 -1.42188 30.6094 -1.42188
Q18.8438 -1.42188 12.1719 6.21875
Q5.51562 13.875 5.51562 27.2969
Q5.51562 40.7656 12.1719 48.375
Q18.8438 56 30.6094 56" id="BitstreamVeraSans-Roman-6f"/>
      <path d="
M44.2812 53.0781
L44.2812 44.5781
Q40.4844 46.5312 36.375 47.5
Q32.2812 48.4844 27.875 48.4844
Q21.1875 48.4844 17.8438 46.4375
Q14.5 44.3906 14.5 40.2812
Q14.5 37.1562 16.8906 35.375
Q19.2812 33.5938 26.5156 31.9844
L29.5938 31.2969
Q39.1562 29.25 43.1875 25.5156
Q47.2188 21.7812 47.2188 15.0938
Q47.2188 7.46875 41.1875 3.01562
Q35.1562 -1.42188 24.6094 -1.42188
Q20.2188 -1.42188 15.4531 -0.5625
Q10.6875 0.296875 5.42188 2
L5.42188 11.2812
Q10.4062 8.6875 15.2344 7.39062
Q20.0625 6.10938 24.8125 6.10938
Q31.1562 6.10938 34.5625 8.28125
Q37.9844 10.4531 37.9844 14.4062
Q37.9844 18.0625 35.5156 20.0156
Q33.0625 21.9688 24.7031 23.7812
L21.5781 24.5156
Q13.2344 26.2656 9.51562 29.9062
Q5.8125 33.5469 5.8125 39.8906
Q5.8125 47.6094 11.2812 51.7969
Q16.75 56 26.8125 56
Q31.7812 56 36.1719 55.2656
Q40.5781 54.5469 44.2812 53.0781" id="BitstreamVeraSans-Roman-73"/>
      <path d="
M14.7969 27.2969
Q14.7969 17.3906 18.875 11.75
Q22.9531 6.10938 30.0781 6.10938
Q37.2031 6.10938 41.2969 11.75
Q45.4062 17.3906 45.4062 27.2969
Q45.4062 37.2031 41.2969 42.8438
Q37.2031 48.4844 30.0781 48.4844
Q22.9531 48.4844 18.875 42.8438
Q14.7969 37.2031 14.7969 27.2969
M45.4062 8.20312
Q42.5781 3.32812 38.25 0.953125
Q33.9375 -1.42188 27.875 -1.42188
Q17.9688 -1.42188 11.7344 6.48438
Q5.51562 14.4062 5.51562 27.2969
Q5.51562 40.1875 11.7344 48.0938
Q17.9688 56 27.875 56
Q33.9375 56 38.25 53.625
Q42.5781 51.2656 45.4062 46.3906
L45.4062 54.6875
L54.3906 54.6875
L54.3906 -20.7969
L45.4062 -20.7969
z
" id="BitstreamVeraSans-Roman-71"/>
     </defs>
     <g transform="translate(16.7015625 156.603125)rotate(-90.0)scale(0.1 -0.1)">
      <use xlink:href="#BitstreamVeraSans-Roman-53"/>
      <use x="63.4765625" xlink:href="#BitstreamVeraSans-Roman-65"/>
      <use x="125.0" xlink:href="#BitstreamVeraSans-Roman-71"/>
      <use x="188.4765625" xlink:href="#BitstreamVeraSans-Roman-2e"/>
      <use x="220.263671875" xlink:href="#BitstreamVeraSans-Roman-20"/>
      <use x="252.05078125" xlink:href="#BitstreamVeraSans-Roman-50"/>
      <use x="308.728515625" xlink:href="#BitstreamVeraSans-Roman-6f"/>
      <use x="369.91015625" xlink:href="#BitstreamVeraSans-Roman-73"/>
      <use x="422.009765625" xlink:href="#BitstreamVeraSans-Roman-2e"/>
     </g>
    </g>
   </g>
   <g id="patch_8">
    <path d="
M39.5616 108.632
L220.912 108.632" style="fill:none;stroke:#000000;"/>
   </g>
   <g id="patch_9">
    <path d="
M220.912 164.432
L220.912 108.632" style="fill:none;stroke:#000000;"/>
   </g>
   <g id="patch_10">
    <path d="
M39.5616 164.432
L220.912 164.432" style="fill:none;stroke:#000000;"/>
   </g>
   <g id="patch_11">
    <path d="
M39.5616 164.432
L39.5616 108.632" style="fill:none;stroke:#000000;"/>
   </g>
  </g>
 </g>
 <defs>
  <clipPath id="pe43f188460">
   <rect height="55.8" width="181.35" x="39.5615625" y="108.63203125"/>
  </clipPath>
  <clipPath id="pad19bb1419">
   <rect height="55.8" width="82.4318181818" x="138.479744318" y="10.98203125"/>
  </clipPath>
 </defs>
</svg>
